<?xml version="1.0" standalone="no"?>
<!DOCTYPE svg PUBLIC "-//W3C//DTD SVG 20010904//EN"
 "http://www.w3.org/TR/2001/REC-SVG-20010904/DTD/svg10.dtd">
<svg version="1.0" xmlns="http://www.w3.org/2000/svg"
 width="1007.000000pt" height="986.000000pt" viewBox="0 0 1007.000000 986.000000"
 preserveAspectRatio="xMidYMid meet">

<g transform="translate(0.000000,986.000000) scale(0.100000,-0.100000)"
fill="#000000" stroke="none">
<path d="M622 9533 l3 -198 55 -10 55 -10 0 -245 c0 -231 -1 -247 -21 -285
-35 -64 -59 -80 -118 -80 -62 0 -111 29 -153 88 l-26 37 -133 0 -134 0 0 -216
0 -215 57 -25 c125 -56 209 -69 443 -69 177 0 226 3 279 18 198 56 322 182
377 382 12 45 18 127 23 335 l6 275 55 10 55 10 3 198 2 197 -415 0 -415 0 2
-197z"/>
<path d="M6520 9551 l0 -179 30 -6 c17 -3 44 -9 60 -12 l30 -6 0 -307 0 -308
-60 -12 -60 -12 0 -200 0 -201 468 5 c417 4 479 7 577 25 257 49 419 144 519
305 69 112 88 185 93 362 4 129 2 162 -16 239 -28 118 -81 216 -156 291 -77
76 -150 119 -273 161 l-97 34 -557 0 -558 0 0 -179z m909 -212 c69 -15 112
-46 139 -100 21 -43 23 -60 23 -197 0 -128 -3 -158 -19 -194 -36 -82 -91 -108
-239 -116 l-103 -5 0 312 0 311 75 0 c40 0 97 -5 124 -11z"/>
<path d="M3705 9640 c-162 -26 -285 -90 -349 -183 -57 -84 -69 -127 -70 -257
-1 -99 2 -122 21 -163 70 -152 210 -233 465 -271 58 -9 109 -16 113 -16 10 0
-5 -81 -22 -113 -26 -52 -97 -61 -179 -23 -28 13 -64 40 -80 60 l-29 36 -128
0 -127 0 2 -162 3 -163 70 -26 c125 -48 205 -59 432 -59 238 0 297 10 405 67
167 88 239 262 194 472 -42 200 -206 303 -520 327 -83 7 -86 8 -86 32 0 46 23
103 53 128 60 50 166 18 218 -67 l24 -38 138 -1 137 0 0 164 0 164 -84 30
c-46 17 -119 38 -162 47 -93 20 -351 28 -439 15z"/>
<path d="M8923 9639 c-302 -39 -500 -184 -580 -424 -24 -72 -27 -95 -27 -230
0 -167 12 -232 66 -339 61 -122 139 -199 263 -261 125 -62 245 -85 445 -85
294 0 442 47 591 187 75 71 133 170 164 283 24 82 27 316 6 400 -53 218 -231
388 -462 444 -141 34 -322 44 -466 25z m250 -390 c52 -14 102 -61 124 -117 25
-66 25 -238 0 -304 -39 -100 -146 -153 -259 -129 -86 19 -134 61 -159 142 -14
44 -13 227 1 280 14 52 64 106 115 124 48 17 126 19 178 4z"/>
<path d="M1570 9431 l0 -179 53 -9 52 -8 6 -210 c6 -234 13 -272 71 -395 32
-67 56 -100 112 -155 123 -121 244 -164 487 -172 178 -6 269 8 375 58 142 67
248 212 296 407 6 26 14 141 17 257 l6 210 53 8 52 9 0 179 0 179 -315 0 -315
0 0 -179 0 -178 53 -9 52 -9 0 -180 c0 -187 -5 -216 -48 -278 -48 -71 -194
-95 -290 -48 -91 44 -120 139 -115 371 l3 135 53 9 52 9 0 178 0 179 -355 0
-355 0 0 -179z"/>
<path d="M4540 9380 l0 -230 73 0 74 0 24 37 c27 41 95 80 149 85 l35 3 3
-284 c2 -211 -1 -287 -9 -292 -7 -4 -32 -10 -56 -14 l-43 -6 0 -185 0 -184
385 0 385 0 0 184 0 185 -43 6 c-24 4 -49 10 -56 14 -8 5 -11 81 -9 292 l3
284 35 -3 c55 -5 122 -43 149 -84 l24 -38 74 0 73 0 0 230 0 230 -635 0 -635
0 0 -230z"/>
<path d="M4657 7809 c-238 -16 -579 -89 -810 -173 -195 -71 -420 -183 -592
-294 -92 -59 -277 -196 -342 -255 -61 -53 -71 -47 120 -79 75 -12 137 -25 137
-28 0 -3 -27 -27 -60 -53 -33 -27 -60 -52 -60 -56 0 -15 429 -82 734 -116 925
-102 1906 -76 2811 77 99 16 181 31 183 33 2 2 -29 30 -68 64 -40 35 -65 63
-58 65 7 3 58 12 113 21 147 24 142 20 90 65 -498 431 -1146 693 -1805 730
-177 10 -228 10 -393 -1z"/>
<path d="M7400 6806 c0 -62 2 -67 16 -55 14 11 19 9 35 -11 21 -28 24 -24 9
14 -8 21 -6 25 11 28 17 3 14 9 -25 48 l-46 44 0 -68z"/>
<path d="M2426 6586 c-80 -106 -183 -271 -254 -406 -339 -646 -430 -1409 -252
-2125 36 -147 93 -316 150 -452 l44 -102 22 32 c12 19 61 67 109 107 48 41
123 116 166 167 43 52 100 114 128 139 l51 46 52 -55 c56 -57 85 -77 114 -77
9 0 69 23 133 52 198 87 269 108 376 108 l93 0 16 40 c17 42 20 127 10 217 -6
44 -10 52 -32 58 -24 6 -25 8 -19 79 3 41 13 111 23 157 l17 84 -33 75 c-47
105 -51 174 -15 287 47 151 97 236 234 399 153 182 318 339 426 405 22 14 108
49 190 78 83 29 168 60 191 68 22 8 66 38 97 66 l56 52 4 80 c5 81 24 138 73
217 l23 36 -82 6 c-45 3 -152 8 -237 11 -563 21 -1269 108 -1791 221 -23 5
-32 -3 -83 -70z"/>
<path d="M7045 6629 c-549 -111 -1178 -180 -1873 -205 l-192 -7 39 -28 c76
-56 84 -88 51 -204 -11 -38 -20 -84 -20 -102 0 -18 -7 -38 -16 -45 -43 -36
-54 -50 -64 -86 -5 -22 -20 -52 -31 -66 -19 -24 -26 -27 -60 -21 -36 6 -39 5
-39 -17 0 -13 12 -40 26 -59 44 -58 61 -101 79 -194 9 -49 28 -110 41 -134 39
-71 150 -207 280 -341 67 -69 149 -163 184 -210 124 -165 156 -198 216 -216
29 -8 56 -20 59 -25 4 -5 19 -16 35 -24 l28 -15 51 69 51 68 0 386 c0 248 4
396 11 414 13 34 55 80 91 99 22 12 123 14 578 14 620 0 598 2 648 -73 l27
-41 3 -398 3 -399 69 -92 c38 -51 73 -104 79 -119 16 -42 3 -85 -36 -118 l-34
-30 -765 0 c-503 0 -771 -3 -784 -10 -36 -19 -67 -11 -97 24 -15 18 -39 39
-53 46 -14 7 -52 39 -86 72 -33 32 -139 116 -235 186 -162 119 -178 133 -232
212 -31 46 -68 95 -81 109 -13 15 -47 60 -76 101 -68 98 -109 140 -135 140
-12 0 -34 14 -51 31 -28 30 -31 31 -99 26 -58 -4 -94 -15 -207 -65 -76 -33
-172 -82 -214 -108 -64 -41 -83 -60 -115 -113 -22 -36 -39 -72 -39 -81 0 -18
346 -251 469 -315 95 -50 112 -80 141 -253 12 -69 34 -157 51 -199 16 -41 39
-113 49 -160 11 -47 25 -93 30 -104 6 -10 22 -62 36 -116 32 -125 63 -185 127
-251 82 -85 241 -155 400 -178 59 -8 87 -35 87 -81 0 -56 -31 -77 -161 -108
-103 -26 -135 -29 -329 -32 -160 -3 -226 -1 -260 9 -64 20 -65 29 -26 212 15
68 14 71 -12 150 -16 49 -57 132 -105 211 -145 240 -177 325 -177 477 0 74 -3
91 -19 107 -26 26 -127 57 -232 71 -46 6 -111 20 -144 30 -100 30 -104 31
-121 6 -8 -13 -21 -59 -28 -103 -15 -85 -85 -282 -135 -381 -17 -33 -33 -80
-37 -104 -8 -62 -23 -95 -50 -113 -38 -24 -132 -45 -209 -45 -38 0 -97 -7
-130 -15 -33 -9 -141 -20 -240 -25 -260 -14 -366 -39 -472 -112 -28 -19 -68
-38 -87 -42 -46 -9 -132 -47 -221 -98 -38 -23 -72 -42 -74 -44 -10 -9 210
-354 276 -433 l28 -33 98 21 c394 85 1040 167 1602 203 285 18 1093 15 1410
-5 531 -34 1017 -97 1469 -189 l149 -30 19 23 c10 13 68 97 127 186 465 691
620 1550 426 2358 -64 268 -139 471 -264 711 -107 207 -289 475 -321 473 -8
-1 -78 -14 -155 -30z"/>
<path d="M6033 5580 c-12 -5 -26 -18 -32 -29 -7 -13 -11 -146 -11 -385 l0
-366 583 0 582 0 -2 365 c-1 242 -6 372 -13 385 -6 12 -22 25 -36 30 -32 13
-1041 12 -1071 0z m645 -106 c50 -6 53 -7 50 -33 -4 -37 -50 -50 -189 -50 -96
-1 -119 2 -130 15 -16 19 -13 65 5 77 11 8 160 3 264 -9z"/>
<path d="M5901 4618 c-34 -45 -61 -88 -61 -95 0 -11 134 -13 735 -13 404 0
735 4 735 8 0 5 -29 48 -65 95 l-66 87 -608 0 -609 0 -61 -82z"/>
<path d="M4320 2885 c-253 -15 -362 -24 -668 -61 -192 -22 -541 -76 -585 -90
-23 -7 -17 -15 54 -74 54 -45 57 -50 37 -54 -13 -3 -86 -15 -163 -28 l-139
-23 104 -86 c389 -319 852 -538 1340 -634 225 -44 301 -50 595 -49 235 0 302
4 420 22 153 24 402 84 535 130 365 126 729 335 1009 580 l44 38 -129 23 c-71
12 -130 23 -131 25 -1 1 29 29 67 61 39 32 68 60 66 62 -7 7 -388 69 -566 92
-569 74 -1292 99 -1890 66z"/>
<path d="M3640 1316 l0 -205 60 -12 60 -12 0 -288 0 -288 -60 -13 -60 -12 0
-203 0 -203 420 0 420 0 0 204 0 204 -46 7 c-26 3 -53 9 -60 12 -11 4 -14 58
-14 293 l0 287 60 12 60 12 0 205 0 204 -420 0 -420 0 0 -204z"/>
<path d="M4610 1160 l0 -240 80 0 c61 0 80 3 80 14 0 41 83 100 159 112 l41 7
-2 -289 -3 -289 -55 -10 -55 -10 -3 -188 -2 -187 395 0 395 0 -2 188 -3 187
-52 9 -53 10 0 289 0 290 42 -7 c63 -10 120 -46 143 -89 l20 -37 78 0 77 0 -2
238 -3 237 -637 3 -638 2 0 -240z"/>
</g>
</svg>
